<?xml version="1.0" encoding="UTF-8" standalone="no"?> <svg xmlns="http://www.w3.org/2000/svg" viewBox="0 0 64 64"><g id="Layer_21" data-name="Layer 21"><path d="M39.44,40.86a14.75,14.75,0,0,0,7-8.61c.75-2.59-7.42.44-8-7.84a6.82,6.82,0,0,1,4-6,.94.94,0,0,0,.31-1,115.69,115.69,0,0,0-10-14C31.44.69,17,21.16,16.91,28.19a14.59,14.59,0,0,0,7.61,12.68C12.59,42.15,13.45,61.05,25.62,61H38.38C50.57,61.05,51.41,42.09,39.44,40.86Zm-2.84-15a8.37,8.37,0,0,0,1.76,3.83L33,34.91V29.37ZM33,40.76V37.69l6.8-6.59a8.87,8.87,0,0,0,4.31,1.79A13.08,13.08,0,0,1,33,40.76ZM18.92,28.19c0-6.09,10.16-19,13.07-22.62a126.77,126.77,0,0,1,8.46,11.69,8.6,8.6,0,0,0-3.89,5.87L33,26.59V20.3l4.38-4.24A1,1,0,0,0,36,14.62l-4.69,4.54c-.52.37-.24,2.34-.3,2.89l-3-2.89a1,1,0,0,0-1.39,1.43L31,24.84v6.29l-6.13-5.92a1,1,0,0,0-1.39,1.43L31,33.91v5.53L23.3,32a1,1,0,0,0-1.39,1.44l7.3,7.06A12.74,12.74,0,0,1,18.92,28.19ZM46.05,51.33C45.65,62,32.45,58.43,25.62,59c-10.25-.22-10.25-16,0-16.2C32.92,43.35,46.33,39.71,46.05,51.33Z"/><path d="M31.37,45.7C24,41.83,19.26,52.71,26,56.24,32.9,59.11,37,49.47,31.37,45.7Zm-.2,7.35c-3.35,5.14-8.13-1.5-5.08-5.24C29.61,44.48,33,49.68,31.17,53.05Z"/><path d="M40,55H38.33c6-3.69.35-8.33-2.49-4.32-.64,1,.5,2.33,1.38,1.43a3.49,3.49,0,0,0,.43-.89.75.75,0,0,1,1.41.31c-.08,1.51-5.83,4.1-2.32,5.25h3.44A.9.9,0,1,0,40,55Z"/></g></svg>